<?xml version="1.0" standalone="no"?>
<svg xmlns="http://www.w3.org/2000/svg" version="1.1" width="792" height="792">
	<!-- Created with https://api.qrserver.com (QR Code API, see goQR.me/api for information) -->
	<title>QR Code</title>
	<desc>https://lllovespr1ng-dot.github.io/zvezdny-guestbook/index.html</desc>
	<rect style="fill:rgb(255, 255, 255);fill-opacity:1" x="0" y="0" width="792" height="792" />
	<g id="elements">
		<path style="fill:rgb(0, 0, 0)" d="M 0,0 l 24,0 0,24 -24,0 z M 24,0 l 24,0 0,24 -24,0 z M 48,0 l 24,0 0,24 -24,0 z M 72,0 l 24,0 0,24 -24,0 z M 96,0 l 24,0 0,24 -24,0 z M 120,0 l 24,0 0,24 -24,0 z M 144,0 l 24,0 0,24 -24,0 z M 240,0 l 24,0 0,24 -24,0 z M 288,0 l 24,0 0,24 -24,0 z M 312,0 l 24,0 0,24 -24,0 z M 384,0 l 24,0 0,24 -24,0 z M 432,0 l 24,0 0,24 -24,0 z M 456,0 l 24,0 0,24 -24,0 z M 480,0 l 24,0 0,24 -24,0 z M 504,0 l 24,0 0,24 -24,0 z M 528,0 l 24,0 0,24 -24,0 z M 552,0 l 24,0 0,24 -24,0 z M 624,0 l 24,0 0,24 -24,0 z M 648,0 l 24,0 0,24 -24,0 z M 672,0 l 24,0 0,24 -24,0 z M 696,0 l 24,0 0,24 -24,0 z M 720,0 l 24,0 0,24 -24,0 z M 744,0 l 24,0 0,24 -24,0 z M 768,0 l 24,0 0,24 -24,0 z M 0,24 l 24,0 0,24 -24,0 z M 144,24 l 24,0 0,24 -24,0 z M 192,24 l 24,0 0,24 -24,0 z M 240,24 l 24,0 0,24 -24,0 z M 360,24 l 24,0 0,24 -24,0 z M 408,24 l 24,0 0,24 -24,0 z M 480,24 l 24,0 0,24 -24,0 z M 504,24 l 24,0 0,24 -24,0 z M 528,24 l 24,0 0,24 -24,0 z M 624,24 l 24,0 0,24 -24,0 z M 768,24 l 24,0 0,24 -24,0 z M 0,48 l 24,0 0,24 -24,0 z M 48,48 l 24,0 0,24 -24,0 z M 72,48 l 24,0 0,24 -24,0 z M 96,48 l 24,0 0,24 -24,0 z M 144,48 l 24,0 0,24 -24,0 z M 288,48 l 24,0 0,24 -24,0 z M 384,48 l 24,0 0,24 -24,0 z M 480,48 l 24,0 0,24 -24,0 z M 504,48 l 24,0 0,24 -24,0 z M 576,48 l 24,0 0,24 -24,0 z M 624,48 l 24,0 0,24 -24,0 z M 672,48 l 24,0 0,24 -24,0 z M 696,48 l 24,0 0,24 -24,0 z M 720,48 l 24,0 0,24 -24,0 z M 768,48 l 24,0 0,24 -24,0 z M 0,72 l 24,0 0,24 -24,0 z M 48,72 l 24,0 0,24 -24,0 z M 72,72 l 24,0 0,24 -24,0 z M 96,72 l 24,0 0,24 -24,0 z M 144,72 l 24,0 0,24 -24,0 z M 192,72 l 24,0 0,24 -24,0 z M 216,72 l 24,0 0,24 -24,0 z M 240,72 l 24,0 0,24 -24,0 z M 288,72 l 24,0 0,24 -24,0 z M 312,72 l 24,0 0,24 -24,0 z M 336,72 l 24,0 0,24 -24,0 z M 408,72 l 24,0 0,24 -24,0 z M 456,72 l 24,0 0,24 -24,0 z M 528,72 l 24,0 0,24 -24,0 z M 552,72 l 24,0 0,24 -24,0 z M 576,72 l 24,0 0,24 -24,0 z M 624,72 l 24,0 0,24 -24,0 z M 672,72 l 24,0 0,24 -24,0 z M 696,72 l 24,0 0,24 -24,0 z M 720,72 l 24,0 0,24 -24,0 z M 768,72 l 24,0 0,24 -24,0 z M 0,96 l 24,0 0,24 -24,0 z M 48,96 l 24,0 0,24 -24,0 z M 72,96 l 24,0 0,24 -24,0 z M 96,96 l 24,0 0,24 -24,0 z M 144,96 l 24,0 0,24 -24,0 z M 216,96 l 24,0 0,24 -24,0 z M 336,96 l 24,0 0,24 -24,0 z M 456,96 l 24,0 0,24 -24,0 z M 552,96 l 24,0 0,24 -24,0 z M 624,96 l 24,0 0,24 -24,0 z M 672,96 l 24,0 0,24 -24,0 z M 696,96 l 24,0 0,24 -24,0 z M 720,96 l 24,0 0,24 -24,0 z M 768,96 l 24,0 0,24 -24,0 z M 0,120 l 24,0 0,24 -24,0 z M 144,120 l 24,0 0,24 -24,0 z M 192,120 l 24,0 0,24 -24,0 z M 216,120 l 24,0 0,24 -24,0 z M 264,120 l 24,0 0,24 -24,0 z M 288,120 l 24,0 0,24 -24,0 z M 336,120 l 24,0 0,24 -24,0 z M 360,120 l 24,0 0,24 -24,0 z M 480,120 l 24,0 0,24 -24,0 z M 504,120 l 24,0 0,24 -24,0 z M 624,120 l 24,0 0,24 -24,0 z M 768,120 l 24,0 0,24 -24,0 z M 0,144 l 24,0 0,24 -24,0 z M 24,144 l 24,0 0,24 -24,0 z M 48,144 l 24,0 0,24 -24,0 z M 72,144 l 24,0 0,24 -24,0 z M 96,144 l 24,0 0,24 -24,0 z M 120,144 l 24,0 0,24 -24,0 z M 144,144 l 24,0 0,24 -24,0 z M 192,144 l 24,0 0,24 -24,0 z M 240,144 l 24,0 0,24 -24,0 z M 288,144 l 24,0 0,24 -24,0 z M 336,144 l 24,0 0,24 -24,0 z M 384,144 l 24,0 0,24 -24,0 z M 432,144 l 24,0 0,24 -24,0 z M 480,144 l 24,0 0,24 -24,0 z M 528,144 l 24,0 0,24 -24,0 z M 576,144 l 24,0 0,24 -24,0 z M 624,144 l 24,0 0,24 -24,0 z M 648,144 l 24,0 0,24 -24,0 z M 672,144 l 24,0 0,24 -24,0 z M 696,144 l 24,0 0,24 -24,0 z M 720,144 l 24,0 0,24 -24,0 z M 744,144 l 24,0 0,24 -24,0 z M 768,144 l 24,0 0,24 -24,0 z M 216,168 l 24,0 0,24 -24,0 z M 240,168 l 24,0 0,24 -24,0 z M 264,168 l 24,0 0,24 -24,0 z M 360,168 l 24,0 0,24 -24,0 z M 504,168 l 24,0 0,24 -24,0 z M 552,168 l 24,0 0,24 -24,0 z M 0,192 l 24,0 0,24 -24,0 z M 24,192 l 24,0 0,24 -24,0 z M 48,192 l 24,0 0,24 -24,0 z M 72,192 l 24,0 0,24 -24,0 z M 96,192 l 24,0 0,24 -24,0 z M 144,192 l 24,0 0,24 -24,0 z M 168,192 l 24,0 0,24 -24,0 z M 192,192 l 24,0 0,24 -24,0 z M 216,192 l 24,0 0,24 -24,0 z M 264,192 l 24,0 0,24 -24,0 z M 312,192 l 24,0 0,24 -24,0 z M 336,192 l 24,0 0,24 -24,0 z M 384,192 l 24,0 0,24 -24,0 z M 408,192 l 24,0 0,24 -24,0 z M 456,192 l 24,0 0,24 -24,0 z M 480,192 l 24,0 0,24 -24,0 z M 528,192 l 24,0 0,24 -24,0 z M 576,192 l 24,0 0,24 -24,0 z M 600,192 l 24,0 0,24 -24,0 z M 648,192 l 24,0 0,24 -24,0 z M 696,192 l 24,0 0,24 -24,0 z M 744,192 l 24,0 0,24 -24,0 z M 72,216 l 24,0 0,24 -24,0 z M 168,216 l 24,0 0,24 -24,0 z M 192,216 l 24,0 0,24 -24,0 z M 240,216 l 24,0 0,24 -24,0 z M 288,216 l 24,0 0,24 -24,0 z M 312,216 l 24,0 0,24 -24,0 z M 384,216 l 24,0 0,24 -24,0 z M 432,216 l 24,0 0,24 -24,0 z M 456,216 l 24,0 0,24 -24,0 z M 480,216 l 24,0 0,24 -24,0 z M 504,216 l 24,0 0,24 -24,0 z M 528,216 l 24,0 0,24 -24,0 z M 552,216 l 24,0 0,24 -24,0 z M 600,216 l 24,0 0,24 -24,0 z M 624,216 l 24,0 0,24 -24,0 z M 720,216 l 24,0 0,24 -24,0 z M 744,216 l 24,0 0,24 -24,0 z M 768,216 l 24,0 0,24 -24,0 z M 24,240 l 24,0 0,24 -24,0 z M 96,240 l 24,0 0,24 -24,0 z M 144,240 l 24,0 0,24 -24,0 z M 168,240 l 24,0 0,24 -24,0 z M 192,240 l 24,0 0,24 -24,0 z M 240,240 l 24,0 0,24 -24,0 z M 336,240 l 24,0 0,24 -24,0 z M 360,240 l 24,0 0,24 -24,0 z M 384,240 l 24,0 0,24 -24,0 z M 504,240 l 24,0 0,24 -24,0 z M 528,240 l 24,0 0,24 -24,0 z M 576,240 l 24,0 0,24 -24,0 z M 672,240 l 24,0 0,24 -24,0 z M 696,240 l 24,0 0,24 -24,0 z M 744,240 l 24,0 0,24 -24,0 z M 0,264 l 24,0 0,24 -24,0 z M 24,264 l 24,0 0,24 -24,0 z M 48,264 l 24,0 0,24 -24,0 z M 72,264 l 24,0 0,24 -24,0 z M 96,264 l 24,0 0,24 -24,0 z M 168,264 l 24,0 0,24 -24,0 z M 192,264 l 24,0 0,24 -24,0 z M 288,264 l 24,0 0,24 -24,0 z M 336,264 l 24,0 0,24 -24,0 z M 360,264 l 24,0 0,24 -24,0 z M 384,264 l 24,0 0,24 -24,0 z M 456,264 l 24,0 0,24 -24,0 z M 480,264 l 24,0 0,24 -24,0 z M 504,264 l 24,0 0,24 -24,0 z M 528,264 l 24,0 0,24 -24,0 z M 552,264 l 24,0 0,24 -24,0 z M 648,264 l 24,0 0,24 -24,0 z M 720,264 l 24,0 0,24 -24,0 z M 0,288 l 24,0 0,24 -24,0 z M 24,288 l 24,0 0,24 -24,0 z M 72,288 l 24,0 0,24 -24,0 z M 120,288 l 24,0 0,24 -24,0 z M 144,288 l 24,0 0,24 -24,0 z M 168,288 l 24,0 0,24 -24,0 z M 192,288 l 24,0 0,24 -24,0 z M 216,288 l 24,0 0,24 -24,0 z M 240,288 l 24,0 0,24 -24,0 z M 288,288 l 24,0 0,24 -24,0 z M 312,288 l 24,0 0,24 -24,0 z M 336,288 l 24,0 0,24 -24,0 z M 360,288 l 24,0 0,24 -24,0 z M 408,288 l 24,0 0,24 -24,0 z M 456,288 l 24,0 0,24 -24,0 z M 528,288 l 24,0 0,24 -24,0 z M 552,288 l 24,0 0,24 -24,0 z M 576,288 l 24,0 0,24 -24,0 z M 600,288 l 24,0 0,24 -24,0 z M 672,288 l 24,0 0,24 -24,0 z M 696,288 l 24,0 0,24 -24,0 z M 0,312 l 24,0 0,24 -24,0 z M 24,312 l 24,0 0,24 -24,0 z M 48,312 l 24,0 0,24 -24,0 z M 72,312 l 24,0 0,24 -24,0 z M 192,312 l 24,0 0,24 -24,0 z M 216,312 l 24,0 0,24 -24,0 z M 312,312 l 24,0 0,24 -24,0 z M 384,312 l 24,0 0,24 -24,0 z M 456,312 l 24,0 0,24 -24,0 z M 480,312 l 24,0 0,24 -24,0 z M 504,312 l 24,0 0,24 -24,0 z M 552,312 l 24,0 0,24 -24,0 z M 576,312 l 24,0 0,24 -24,0 z M 600,312 l 24,0 0,24 -24,0 z M 624,312 l 24,0 0,24 -24,0 z M 744,312 l 24,0 0,24 -24,0 z M 768,312 l 24,0 0,24 -24,0 z M 0,336 l 24,0 0,24 -24,0 z M 24,336 l 24,0 0,24 -24,0 z M 72,336 l 24,0 0,24 -24,0 z M 96,336 l 24,0 0,24 -24,0 z M 120,336 l 24,0 0,24 -24,0 z M 144,336 l 24,0 0,24 -24,0 z M 216,336 l 24,0 0,24 -24,0 z M 264,336 l 24,0 0,24 -24,0 z M 288,336 l 24,0 0,24 -24,0 z M 336,336 l 24,0 0,24 -24,0 z M 360,336 l 24,0 0,24 -24,0 z M 408,336 l 24,0 0,24 -24,0 z M 432,336 l 24,0 0,24 -24,0 z M 576,336 l 24,0 0,24 -24,0 z M 744,336 l 24,0 0,24 -24,0 z M 24,360 l 24,0 0,24 -24,0 z M 48,360 l 24,0 0,24 -24,0 z M 72,360 l 24,0 0,24 -24,0 z M 240,360 l 24,0 0,24 -24,0 z M 264,360 l 24,0 0,24 -24,0 z M 360,360 l 24,0 0,24 -24,0 z M 384,360 l 24,0 0,24 -24,0 z M 480,360 l 24,0 0,24 -24,0 z M 504,360 l 24,0 0,24 -24,0 z M 624,360 l 24,0 0,24 -24,0 z M 720,360 l 24,0 0,24 -24,0 z M 0,384 l 24,0 0,24 -24,0 z M 72,384 l 24,0 0,24 -24,0 z M 144,384 l 24,0 0,24 -24,0 z M 168,384 l 24,0 0,24 -24,0 z M 240,384 l 24,0 0,24 -24,0 z M 264,384 l 24,0 0,24 -24,0 z M 360,384 l 24,0 0,24 -24,0 z M 408,384 l 24,0 0,24 -24,0 z M 648,384 l 24,0 0,24 -24,0 z M 672,384 l 24,0 0,24 -24,0 z M 744,384 l 24,0 0,24 -24,0 z M 0,408 l 24,0 0,24 -24,0 z M 24,408 l 24,0 0,24 -24,0 z M 48,408 l 24,0 0,24 -24,0 z M 72,408 l 24,0 0,24 -24,0 z M 168,408 l 24,0 0,24 -24,0 z M 192,408 l 24,0 0,24 -24,0 z M 240,408 l 24,0 0,24 -24,0 z M 288,408 l 24,0 0,24 -24,0 z M 312,408 l 24,0 0,24 -24,0 z M 384,408 l 24,0 0,24 -24,0 z M 456,408 l 24,0 0,24 -24,0 z M 480,408 l 24,0 0,24 -24,0 z M 552,408 l 24,0 0,24 -24,0 z M 600,408 l 24,0 0,24 -24,0 z M 624,408 l 24,0 0,24 -24,0 z M 696,408 l 24,0 0,24 -24,0 z M 744,408 l 24,0 0,24 -24,0 z M 768,408 l 24,0 0,24 -24,0 z M 0,432 l 24,0 0,24 -24,0 z M 48,432 l 24,0 0,24 -24,0 z M 72,432 l 24,0 0,24 -24,0 z M 144,432 l 24,0 0,24 -24,0 z M 168,432 l 24,0 0,24 -24,0 z M 192,432 l 24,0 0,24 -24,0 z M 216,432 l 24,0 0,24 -24,0 z M 312,432 l 24,0 0,24 -24,0 z M 336,432 l 24,0 0,24 -24,0 z M 360,432 l 24,0 0,24 -24,0 z M 528,432 l 24,0 0,24 -24,0 z M 648,432 l 24,0 0,24 -24,0 z M 672,432 l 24,0 0,24 -24,0 z M 696,432 l 24,0 0,24 -24,0 z M 744,432 l 24,0 0,24 -24,0 z M 0,456 l 24,0 0,24 -24,0 z M 48,456 l 24,0 0,24 -24,0 z M 216,456 l 24,0 0,24 -24,0 z M 240,456 l 24,0 0,24 -24,0 z M 288,456 l 24,0 0,24 -24,0 z M 312,456 l 24,0 0,24 -24,0 z M 384,456 l 24,0 0,24 -24,0 z M 432,456 l 24,0 0,24 -24,0 z M 456,456 l 24,0 0,24 -24,0 z M 504,456 l 24,0 0,24 -24,0 z M 552,456 l 24,0 0,24 -24,0 z M 600,456 l 24,0 0,24 -24,0 z M 720,456 l 24,0 0,24 -24,0 z M 24,480 l 24,0 0,24 -24,0 z M 48,480 l 24,0 0,24 -24,0 z M 72,480 l 24,0 0,24 -24,0 z M 144,480 l 24,0 0,24 -24,0 z M 192,480 l 24,0 0,24 -24,0 z M 240,480 l 24,0 0,24 -24,0 z M 288,480 l 24,0 0,24 -24,0 z M 336,480 l 24,0 0,24 -24,0 z M 408,480 l 24,0 0,24 -24,0 z M 456,480 l 24,0 0,24 -24,0 z M 480,480 l 24,0 0,24 -24,0 z M 528,480 l 24,0 0,24 -24,0 z M 552,480 l 24,0 0,24 -24,0 z M 576,480 l 24,0 0,24 -24,0 z M 600,480 l 24,0 0,24 -24,0 z M 672,480 l 24,0 0,24 -24,0 z M 744,480 l 24,0 0,24 -24,0 z M 0,504 l 24,0 0,24 -24,0 z M 24,504 l 24,0 0,24 -24,0 z M 48,504 l 24,0 0,24 -24,0 z M 72,504 l 24,0 0,24 -24,0 z M 216,504 l 24,0 0,24 -24,0 z M 240,504 l 24,0 0,24 -24,0 z M 384,504 l 24,0 0,24 -24,0 z M 432,504 l 24,0 0,24 -24,0 z M 456,504 l 24,0 0,24 -24,0 z M 480,504 l 24,0 0,24 -24,0 z M 552,504 l 24,0 0,24 -24,0 z M 624,504 l 24,0 0,24 -24,0 z M 696,504 l 24,0 0,24 -24,0 z M 744,504 l 24,0 0,24 -24,0 z M 768,504 l 24,0 0,24 -24,0 z M 0,528 l 24,0 0,24 -24,0 z M 96,528 l 24,0 0,24 -24,0 z M 144,528 l 24,0 0,24 -24,0 z M 168,528 l 24,0 0,24 -24,0 z M 192,528 l 24,0 0,24 -24,0 z M 240,528 l 24,0 0,24 -24,0 z M 264,528 l 24,0 0,24 -24,0 z M 288,528 l 24,0 0,24 -24,0 z M 360,528 l 24,0 0,24 -24,0 z M 384,528 l 24,0 0,24 -24,0 z M 408,528 l 24,0 0,24 -24,0 z M 432,528 l 24,0 0,24 -24,0 z M 480,528 l 24,0 0,24 -24,0 z M 504,528 l 24,0 0,24 -24,0 z M 576,528 l 24,0 0,24 -24,0 z M 600,528 l 24,0 0,24 -24,0 z M 624,528 l 24,0 0,24 -24,0 z M 672,528 l 24,0 0,24 -24,0 z M 696,528 l 24,0 0,24 -24,0 z M 744,528 l 24,0 0,24 -24,0 z M 0,552 l 24,0 0,24 -24,0 z M 168,552 l 24,0 0,24 -24,0 z M 216,552 l 24,0 0,24 -24,0 z M 264,552 l 24,0 0,24 -24,0 z M 336,552 l 24,0 0,24 -24,0 z M 360,552 l 24,0 0,24 -24,0 z M 432,552 l 24,0 0,24 -24,0 z M 480,552 l 24,0 0,24 -24,0 z M 504,552 l 24,0 0,24 -24,0 z M 528,552 l 24,0 0,24 -24,0 z M 624,552 l 24,0 0,24 -24,0 z M 672,552 l 24,0 0,24 -24,0 z M 696,552 l 24,0 0,24 -24,0 z M 720,552 l 24,0 0,24 -24,0 z M 0,576 l 24,0 0,24 -24,0 z M 48,576 l 24,0 0,24 -24,0 z M 72,576 l 24,0 0,24 -24,0 z M 144,576 l 24,0 0,24 -24,0 z M 168,576 l 24,0 0,24 -24,0 z M 192,576 l 24,0 0,24 -24,0 z M 216,576 l 24,0 0,24 -24,0 z M 264,576 l 24,0 0,24 -24,0 z M 408,576 l 24,0 0,24 -24,0 z M 528,576 l 24,0 0,24 -24,0 z M 576,576 l 24,0 0,24 -24,0 z M 600,576 l 24,0 0,24 -24,0 z M 624,576 l 24,0 0,24 -24,0 z M 648,576 l 24,0 0,24 -24,0 z M 672,576 l 24,0 0,24 -24,0 z M 768,576 l 24,0 0,24 -24,0 z M 192,600 l 24,0 0,24 -24,0 z M 216,600 l 24,0 0,24 -24,0 z M 288,600 l 24,0 0,24 -24,0 z M 312,600 l 24,0 0,24 -24,0 z M 336,600 l 24,0 0,24 -24,0 z M 384,600 l 24,0 0,24 -24,0 z M 408,600 l 24,0 0,24 -24,0 z M 432,600 l 24,0 0,24 -24,0 z M 456,600 l 24,0 0,24 -24,0 z M 480,600 l 24,0 0,24 -24,0 z M 576,600 l 24,0 0,24 -24,0 z M 672,600 l 24,0 0,24 -24,0 z M 696,600 l 24,0 0,24 -24,0 z M 768,600 l 24,0 0,24 -24,0 z M 0,624 l 24,0 0,24 -24,0 z M 24,624 l 24,0 0,24 -24,0 z M 48,624 l 24,0 0,24 -24,0 z M 72,624 l 24,0 0,24 -24,0 z M 96,624 l 24,0 0,24 -24,0 z M 120,624 l 24,0 0,24 -24,0 z M 144,624 l 24,0 0,24 -24,0 z M 192,624 l 24,0 0,24 -24,0 z M 216,624 l 24,0 0,24 -24,0 z M 240,624 l 24,0 0,24 -24,0 z M 312,624 l 24,0 0,24 -24,0 z M 336,624 l 24,0 0,24 -24,0 z M 360,624 l 24,0 0,24 -24,0 z M 384,624 l 24,0 0,24 -24,0 z M 408,624 l 24,0 0,24 -24,0 z M 528,624 l 24,0 0,24 -24,0 z M 552,624 l 24,0 0,24 -24,0 z M 576,624 l 24,0 0,24 -24,0 z M 624,624 l 24,0 0,24 -24,0 z M 672,624 l 24,0 0,24 -24,0 z M 720,624 l 24,0 0,24 -24,0 z M 744,624 l 24,0 0,24 -24,0 z M 0,648 l 24,0 0,24 -24,0 z M 144,648 l 24,0 0,24 -24,0 z M 288,648 l 24,0 0,24 -24,0 z M 312,648 l 24,0 0,24 -24,0 z M 384,648 l 24,0 0,24 -24,0 z M 456,648 l 24,0 0,24 -24,0 z M 480,648 l 24,0 0,24 -24,0 z M 504,648 l 24,0 0,24 -24,0 z M 528,648 l 24,0 0,24 -24,0 z M 552,648 l 24,0 0,24 -24,0 z M 576,648 l 24,0 0,24 -24,0 z M 672,648 l 24,0 0,24 -24,0 z M 696,648 l 24,0 0,24 -24,0 z M 720,648 l 24,0 0,24 -24,0 z M 744,648 l 24,0 0,24 -24,0 z M 768,648 l 24,0 0,24 -24,0 z M 0,672 l 24,0 0,24 -24,0 z M 48,672 l 24,0 0,24 -24,0 z M 72,672 l 24,0 0,24 -24,0 z M 96,672 l 24,0 0,24 -24,0 z M 144,672 l 24,0 0,24 -24,0 z M 192,672 l 24,0 0,24 -24,0 z M 240,672 l 24,0 0,24 -24,0 z M 288,672 l 24,0 0,24 -24,0 z M 336,672 l 24,0 0,24 -24,0 z M 408,672 l 24,0 0,24 -24,0 z M 480,672 l 24,0 0,24 -24,0 z M 576,672 l 24,0 0,24 -24,0 z M 600,672 l 24,0 0,24 -24,0 z M 624,672 l 24,0 0,24 -24,0 z M 648,672 l 24,0 0,24 -24,0 z M 672,672 l 24,0 0,24 -24,0 z M 744,672 l 24,0 0,24 -24,0 z M 768,672 l 24,0 0,24 -24,0 z M 0,696 l 24,0 0,24 -24,0 z M 48,696 l 24,0 0,24 -24,0 z M 72,696 l 24,0 0,24 -24,0 z M 96,696 l 24,0 0,24 -24,0 z M 144,696 l 24,0 0,24 -24,0 z M 192,696 l 24,0 0,24 -24,0 z M 216,696 l 24,0 0,24 -24,0 z M 408,696 l 24,0 0,24 -24,0 z M 432,696 l 24,0 0,24 -24,0 z M 456,696 l 24,0 0,24 -24,0 z M 480,696 l 24,0 0,24 -24,0 z M 552,696 l 24,0 0,24 -24,0 z M 576,696 l 24,0 0,24 -24,0 z M 600,696 l 24,0 0,24 -24,0 z M 648,696 l 24,0 0,24 -24,0 z M 672,696 l 24,0 0,24 -24,0 z M 696,696 l 24,0 0,24 -24,0 z M 744,696 l 24,0 0,24 -24,0 z M 768,696 l 24,0 0,24 -24,0 z M 0,720 l 24,0 0,24 -24,0 z M 48,720 l 24,0 0,24 -24,0 z M 72,720 l 24,0 0,24 -24,0 z M 96,720 l 24,0 0,24 -24,0 z M 144,720 l 24,0 0,24 -24,0 z M 192,720 l 24,0 0,24 -24,0 z M 264,720 l 24,0 0,24 -24,0 z M 288,720 l 24,0 0,24 -24,0 z M 360,720 l 24,0 0,24 -24,0 z M 384,720 l 24,0 0,24 -24,0 z M 408,720 l 24,0 0,24 -24,0 z M 528,720 l 24,0 0,24 -24,0 z M 552,720 l 24,0 0,24 -24,0 z M 624,720 l 24,0 0,24 -24,0 z M 720,720 l 24,0 0,24 -24,0 z M 0,744 l 24,0 0,24 -24,0 z M 144,744 l 24,0 0,24 -24,0 z M 192,744 l 24,0 0,24 -24,0 z M 216,744 l 24,0 0,24 -24,0 z M 240,744 l 24,0 0,24 -24,0 z M 264,744 l 24,0 0,24 -24,0 z M 336,744 l 24,0 0,24 -24,0 z M 456,744 l 24,0 0,24 -24,0 z M 504,744 l 24,0 0,24 -24,0 z M 528,744 l 24,0 0,24 -24,0 z M 600,744 l 24,0 0,24 -24,0 z M 648,744 l 24,0 0,24 -24,0 z M 696,744 l 24,0 0,24 -24,0 z M 720,744 l 24,0 0,24 -24,0 z M 0,768 l 24,0 0,24 -24,0 z M 24,768 l 24,0 0,24 -24,0 z M 48,768 l 24,0 0,24 -24,0 z M 72,768 l 24,0 0,24 -24,0 z M 96,768 l 24,0 0,24 -24,0 z M 120,768 l 24,0 0,24 -24,0 z M 144,768 l 24,0 0,24 -24,0 z M 192,768 l 24,0 0,24 -24,0 z M 240,768 l 24,0 0,24 -24,0 z M 264,768 l 24,0 0,24 -24,0 z M 408,768 l 24,0 0,24 -24,0 z M 456,768 l 24,0 0,24 -24,0 z M 480,768 l 24,0 0,24 -24,0 z M 528,768 l 24,0 0,24 -24,0 z M 576,768 l 24,0 0,24 -24,0 z M 600,768 l 24,0 0,24 -24,0 z M 624,768 l 24,0 0,24 -24,0 z M 672,768 l 24,0 0,24 -24,0 z M 744,768 l 24,0 0,24 -24,0 z " />
	</g>
</svg>
