<svg width="132" height="47" viewBox="0 0 132 47" fill="none" xmlns="http://www.w3.org/2000/svg">
<path d="M32.714 0.00712967L33.3573 1.34587L34.8319 1.57698L33.7502 2.59943L33.9843 4.06491L32.6706 3.35622L31.3406 4.03133L31.6118 2.57188L30.5578 1.52444L32.0379 1.33011L32.714 0.00712967ZM25.6685 37.3537C27.2688 36.0653 28.3364 33.7469 28.3364 31.0994C30.5497 31.0994 34.342 29.4685 36.2989 27.0467C36.977 32.5753 39.1751 38.3322 40.6895 41.7933C37.1426 40.248 31.2826 38.0208 25.6685 37.3537ZM22.7856 36.0056L22.6289 35.9975L22.5854 35.9993L22.5409 35.9975L22.3842 36.0056C20.9084 35.9875 19.2681 33.976 19.2681 31.0994V28.676H16.8343C15.8997 28.676 14.043 28.0936 12.4409 27.0113C10.9483 26.0067 10.0582 24.8412 10.0582 23.8957C10.0582 22.9389 10.9907 21.6846 12.4867 20.621C14.1017 19.4781 15.9317 18.8606 16.8343 18.8606H19.2681V16.4379C19.2681 13.5562 20.9114 11.5439 22.3883 11.5326L22.549 11.5391L22.5854 11.5377L22.6201 11.5391L22.7813 11.5326C24.2595 11.5439 25.9005 13.5562 25.9005 16.4379V18.8606H28.3364C29.2385 18.8606 31.0671 19.4781 32.6815 20.621C34.1791 21.6846 35.1123 22.9389 35.1123 23.8957C35.1123 24.8412 34.2208 26.0067 32.7282 27.0113C31.1254 28.0936 29.2693 28.676 28.3364 28.676H25.9005V31.0994C25.9005 33.976 24.2616 35.9875 22.7856 36.0056ZM4.48 41.7933C5.99468 38.3322 8.19248 32.5753 8.87157 27.0467C10.8289 29.4685 14.6208 31.0994 16.8343 31.0994C16.8343 33.7469 17.901 36.0653 19.5006 37.3537C13.886 38.0208 8.02748 40.248 4.48 41.7933ZM4.41624 5.80849C7.94669 7.33303 13.848 9.55857 19.4801 10.2006C17.8922 11.4907 16.8343 13.8012 16.8343 16.4379C14.6222 16.4379 10.8337 18.2007 8.87593 20.6923C8.19755 15.1274 5.96586 9.32442 4.41624 5.80849ZM40.7529 5.80849C39.2041 9.32442 36.972 15.1274 36.2932 20.6923C34.3368 18.2007 30.5474 16.4379 28.3364 16.4379C28.3364 13.8012 27.2776 11.4907 25.689 10.2011C31.3206 9.55856 37.2224 7.33303 40.7529 5.80849ZM44.3565 43.8835C44.3565 43.8835 38.526 32.625 38.526 23.8496C38.526 14.9904 44.4805 3.62228 44.4805 3.62228C45.0938 1.93793 44.6074 1.26602 42.8572 2.1626C42.8572 2.1626 31.5282 7.95863 22.7023 7.95863C22.6634 7.95863 22.6236 7.9575 22.5854 7.95703C22.5451 7.9575 22.5062 7.95863 22.4656 7.95863C13.6411 7.95863 2.313 2.1626 2.313 2.1626C0.561947 1.26602 0.0746352 1.93793 0.68993 3.62228C0.68993 3.62228 6.64425 14.9904 6.64425 23.8496C6.64425 32.625 0.812166 43.8835 0.812166 43.8835C-0.088109 45.6234 0.574147 46.3323 2.27732 45.4991L2.28146 45.4968C2.28146 45.4968 13.6775 39.598 22.5854 39.5777C31.4918 39.598 42.8886 45.4968 42.8886 45.4968L42.8911 45.4991C44.5961 46.3323 45.257 45.6234 44.356 43.8835H44.3565ZM118.426 32.9177C118.548 32.9177 118.649 32.8812 118.719 32.808C118.791 32.7354 118.828 32.6373 118.828 32.5149H119.477L119.482 32.5299C119.488 32.7914 119.392 33.0174 119.184 33.1923C118.979 33.3705 118.727 33.4602 118.426 33.4602C118.038 33.4602 117.736 33.3344 117.523 33.0889C117.313 32.8418 117.205 32.5269 117.205 32.1401V32.0651C117.205 31.6831 117.31 31.3657 117.523 31.1188C117.736 30.8694 118.035 30.7446 118.418 30.7446C118.745 30.7446 119.002 30.8365 119.195 31.02C119.393 31.2039 119.488 31.4464 119.482 31.7437L119.477 31.7587H118.828C118.828 31.6274 118.791 31.5138 118.72 31.4231C118.65 31.3328 118.548 31.2898 118.418 31.2898C118.237 31.2898 118.107 31.3594 118.031 31.5094C117.953 31.653 117.914 31.8395 117.914 32.0651V32.1401C117.914 32.3719 117.953 32.5588 118.031 32.702C118.107 32.846 118.239 32.9177 118.426 32.9177ZM115.55 32.4311H115.278V33.4077H114.568V30.7933H115.278V31.7907H115.49L116.093 30.7933H116.991L116.121 32.0077L117.071 33.4077H116.124L115.55 32.4311ZM113.017 31.2898C112.874 31.2898 112.765 31.3372 112.686 31.433C112.609 31.5339 112.561 31.6625 112.546 31.8224L112.551 31.8342H113.416V31.7819C113.416 31.6287 113.383 31.5095 113.322 31.4221C113.258 31.3328 113.159 31.2898 113.017 31.2898ZM113.061 33.4602C112.667 33.4602 112.364 33.3425 112.145 33.1012C111.921 32.8605 111.811 32.5526 111.811 32.175V32.0804C111.811 31.6877 111.918 31.3675 112.135 31.1188C112.347 30.8656 112.641 30.7446 113.017 30.7446C113.369 30.7446 113.639 30.8508 113.828 31.067C114.017 31.2828 114.113 31.572 114.113 31.9371V32.3022H112.543L112.538 32.317C112.549 32.4947 112.605 32.6384 112.7 32.7504C112.8 32.8624 112.945 32.9177 113.139 32.9177C113.298 32.9177 113.43 32.9011 113.541 32.8726C113.651 32.8381 113.768 32.7886 113.887 32.7226L114.079 33.1583C113.974 33.2428 113.829 33.3163 113.651 33.3709C113.472 33.4313 113.274 33.4602 113.061 33.4602ZM111.406 30.7933V33.4082H110.696V31.3372H110.063V31.9082C110.063 32.4226 109.987 32.8036 109.827 33.044C109.669 33.2879 109.397 33.4082 109.013 33.4082H108.897L108.891 32.8515H108.965C109.128 32.8515 109.232 32.7849 109.281 32.6532C109.33 32.523 109.356 32.2726 109.356 31.9082V30.7933H111.406ZM108.593 33.4077H107.882V31.3372H107.014V33.4077H106.302V30.7933H108.593V33.4077ZM104.117 32.5889H104.133L104.809 30.7933H105.699V33.4077H104.99V31.8448H104.976L104.366 33.4077H103.888L103.293 31.877L103.279 31.8784V33.4077H102.567V30.7933H103.447L104.117 32.5889ZM100.314 32.1278C100.314 32.3666 100.355 32.5572 100.438 32.702C100.525 32.846 100.658 32.9177 100.845 32.9177C101.03 32.9177 101.166 32.846 101.251 32.6986C101.333 32.5572 101.378 32.3638 101.378 32.1278V32.0769C101.378 31.8448 101.333 31.6555 101.249 31.511C101.165 31.3594 101.028 31.2898 100.843 31.2898C100.658 31.2898 100.526 31.3643 100.438 31.511C100.355 31.6581 100.314 31.8448 100.314 32.0769V32.1278ZM99.6047 32.0769C99.6047 31.6877 99.7143 31.3657 99.9335 31.1188C100.152 30.8694 100.453 30.7446 100.843 30.7446C101.234 30.7446 101.535 30.8694 101.758 31.1188C101.977 31.3657 102.087 31.6866 102.087 32.0769V32.1278C102.087 32.5223 101.979 32.8418 101.758 33.0898C101.538 33.3344 101.236 33.4602 100.846 33.4602C100.459 33.4602 100.154 33.3344 99.9335 33.0898C99.7143 32.8418 99.6047 32.5223 99.6047 32.1278V32.0769ZM97.9505 32.4311H97.6789V33.4077H96.9682V30.7933H97.6789V31.7907H97.8904L98.4903 30.7933H99.3896L98.5216 32.0077L99.4685 33.4077H98.5216L97.9505 32.4311ZM94.8326 29.6535L94.8373 29.6692C94.8456 29.8719 94.7725 30.0399 94.6217 30.1709C94.4685 30.2998 94.2663 30.365 94.0088 30.365C93.7519 30.365 93.5468 30.2998 93.3942 30.1709C93.2404 30.0399 93.1691 29.8719 93.1791 29.6692L93.1832 29.6535H93.7041C93.7041 29.74 93.7289 29.8092 93.776 29.8643C93.8279 29.9194 93.9022 29.948 94.0088 29.948C94.1119 29.948 94.1891 29.9194 94.2363 29.8643C94.2881 29.8092 94.3099 29.74 94.3099 29.6535H94.8326ZM94.4443 30.7933H95.1544V33.4077H94.4443V31.8124L94.4301 31.811L93.5698 33.4077H92.8615V30.7933H93.5698V32.3834L93.5881 32.3853L94.4443 30.7933ZM92.1231 33.4077H91.4124V30.7933H92.1231V33.4077ZM89.5355 32.1831V32.8726H90.0258C90.1702 32.8726 90.2786 32.8381 90.3476 32.7738C90.4224 32.7104 90.4578 32.6266 90.4578 32.5253C90.4578 32.4255 90.4224 32.3448 90.3476 32.2787C90.2786 32.212 90.1702 32.1831 90.0258 32.1831H89.5355ZM89.5355 31.641H90.0258C90.3806 31.641 90.6575 31.7217 90.8603 31.8839C91.0653 32.0438 91.1643 32.2569 91.1643 32.5181C91.1643 32.7849 91.0653 32.9998 90.8603 33.1631C90.6575 33.33 90.3806 33.4077 90.0258 33.4077H88.8201V30.7933H89.5355V31.641ZM88.1914 33.4077H87.4836V32.3931H86.6156V33.4077H85.9067V30.7933H86.6156V31.8513H87.4836V30.7933H88.1914V33.4077ZM85.3893 33.4077H84.6781V32.5792C84.6191 32.5954 84.5567 32.6026 84.4942 32.6077C84.4276 32.6146 84.374 32.6176 84.3198 32.6176C83.9285 32.6176 83.6333 32.5364 83.4229 32.3686C83.2113 32.2046 83.1058 31.9538 83.1058 31.6151V30.7933H83.8159V31.6151C83.8159 31.7856 83.8554 31.9082 83.9303 31.9742C84.0086 32.0415 84.1353 32.0732 84.3198 32.0732C84.3781 32.0732 84.437 32.0674 84.4966 32.0612C84.5567 32.0551 84.6174 32.0468 84.6781 32.035V30.7933H85.3893V33.4077ZM81.889 30.7933H82.5932V33.4077H81.889V31.8124L81.8731 31.811L81.0133 33.4077H80.3026V30.7933H81.0133V32.3834L81.0298 32.3853L81.889 30.7933ZM79.777 33.4077H79.0686V32.3931H78.203V33.4077H77.4905V30.7933H78.203V31.8513H79.0686V30.7933H79.777V33.4077ZM76.2631 30.7933H76.9702V33.4077H76.2631V31.8124L76.2483 31.811L75.3903 33.4077H74.6796V30.7933H75.3903V32.3834L75.4051 32.3853L76.2631 30.7933ZM74.3172 31.3328H73.4751V33.4077H72.7598V31.3328H71.9324V30.7933H74.3172V31.3328ZM70.6189 32.9177C70.7432 32.9177 70.8422 32.8812 70.9129 32.808C70.9884 32.7354 71.0225 32.6373 71.0225 32.5149H71.6696L71.6737 32.5299C71.6802 32.7914 71.5812 33.0174 71.3761 33.1923C71.1746 33.3705 70.9206 33.4602 70.6189 33.4602C70.2288 33.4602 69.9306 33.3344 69.7167 33.0889C69.5028 32.8418 69.3979 32.5269 69.3979 32.1401V32.0651C69.3979 31.6831 69.5028 31.3657 69.7167 31.1188C69.9253 30.8694 70.227 30.7446 70.6118 30.7446C70.9347 30.7446 71.194 30.8365 71.3891 31.02C71.5871 31.2039 71.6802 31.4464 71.6737 31.7437L71.6696 31.7587H71.0225C71.0225 31.6274 70.9884 31.5138 70.9129 31.4231C70.8428 31.3328 70.7432 31.2898 70.6118 31.2898C70.4309 31.2898 70.3007 31.3594 70.2241 31.5094C70.148 31.653 70.1091 31.8395 70.1091 32.0651V32.1401C70.1091 32.3719 70.148 32.5588 70.2241 32.702C70.3007 32.846 70.4333 32.9177 70.6189 32.9177ZM67.3065 32.1278C67.3065 32.3666 67.3466 32.5572 67.4326 32.702C67.5175 32.846 67.653 32.9177 67.841 32.9177C68.0248 32.9177 68.1574 32.846 68.2441 32.6986C68.3295 32.5572 68.3725 32.3638 68.3725 32.1278V32.0769C68.3725 31.8448 68.3295 31.6555 68.2441 31.511C68.1574 31.3594 68.0207 31.2898 67.8357 31.2898C67.653 31.2898 67.5192 31.3643 67.4338 31.511C67.3466 31.6581 67.3065 31.8448 67.3065 32.0769V32.1278ZM66.5988 32.0769C66.5988 31.6877 66.7084 31.3657 66.9258 31.1188C67.145 30.8694 67.4479 30.7446 67.8357 30.7446C68.2276 30.7446 68.5299 30.8694 68.752 31.1188C68.9695 31.3657 69.0814 31.6866 69.0814 32.0769V32.1278C69.0814 32.5223 68.9718 32.8418 68.752 33.0898C68.534 33.3344 68.2299 33.4602 67.841 33.4602C67.4515 33.4602 67.1492 33.3344 66.9294 33.0898C66.7084 32.8418 66.5988 32.5223 66.5988 32.1278V32.0769ZM66.4632 31.3372H65.3731V33.4077H64.6641V30.7933H66.4632V31.3372ZM85.9409 22.6509V22.5694C86.532 22.479 86.9303 22.2654 87.1383 21.9368C87.3434 21.6032 87.4477 21.1192 87.4477 20.4862C87.4477 19.8749 87.2939 19.3964 86.9745 19.0447C86.664 18.6917 86.2114 18.445 85.6245 18.3035C85.0399 18.1598 84.3015 18.0868 83.4211 18.0868C82.5419 18.0857 81.8177 18.1598 81.2472 18.3046C80.678 18.4529 80.2437 18.7125 79.9408 19.0822C79.6408 19.454 79.4906 19.9621 79.4906 20.6065V20.9838H81.9497C81.9497 20.7358 81.9933 20.5438 82.0899 20.4093C82.1871 20.2775 82.3356 20.1868 82.5401 20.134C82.7375 20.0852 83.0204 20.0609 83.3816 20.0609C83.9933 20.0609 84.3993 20.1313 84.5938 20.2661C84.793 20.3978 84.8908 20.6164 84.8908 20.9179C84.8908 21.1578 84.8519 21.3404 84.7782 21.4665C84.7046 21.587 84.5926 21.6715 84.4323 21.7182C84.2809 21.7615 84.0593 21.7841 83.7776 21.7841L82.5578 21.783V22.603L82.556 23.4292H83.7753C84.0552 23.4292 84.2768 23.454 84.4288 23.4979C84.5873 23.5472 84.7046 23.6279 84.7759 23.7524C84.8484 23.8767 84.8855 24.0569 84.8855 24.2996C84.8855 24.6016 84.7912 24.8193 84.5926 24.9525C84.3946 25.087 83.9892 25.1554 83.3799 25.1554C83.0169 25.1554 82.7346 25.1286 82.5354 25.0798C82.3274 25.0263 82.1824 24.9356 82.0852 24.8017C81.9909 24.6686 81.9414 24.4783 81.9479 24.2256L79.4865 24.2242V24.5976C79.4865 25.2433 79.6349 25.7556 79.9349 26.1291C80.2348 26.499 80.6697 26.7565 81.2396 26.9042C81.81 27.0543 82.536 27.1286 83.4152 27.1307C84.2909 27.1307 85.0299 27.0594 85.6156 26.9164C86.2037 26.7748 86.6539 26.5305 86.971 26.1792C87.2862 25.8274 87.4436 25.3489 87.4436 24.736C87.4436 24.1008 87.3434 23.6187 87.136 23.2862C86.9303 22.9551 86.532 22.7432 85.9409 22.6509ZM58.8375 22.6256V22.5421C59.4313 22.453 59.8338 22.2427 60.0377 21.913C60.241 21.5784 60.3482 21.0963 60.3482 20.4621C60.3482 19.8497 60.1903 19.3703 59.875 19.0191C59.5598 18.6676 59.1084 18.4179 58.5237 18.2763C57.9349 18.1333 57.199 18.0607 56.321 18.0607C55.4419 18.0607 54.7173 18.1333 54.1499 18.2803C53.5774 18.4279 53.1414 18.6889 52.8406 19.0577C52.5429 19.4274 52.3919 19.9362 52.391 20.5859L52.3889 20.9586L54.8474 20.9607C54.8474 20.7113 54.8938 20.5209 54.9938 20.3846C55.0824 20.2513 55.2324 20.1616 55.4364 20.1098C55.6385 20.0602 55.9233 20.0345 56.2796 20.0383C56.8935 20.0383 57.2977 20.1053 57.4945 20.2407C57.6927 20.3742 57.7899 20.5928 57.7899 20.8966C57.7887 21.134 57.7514 21.3175 57.6782 21.4408C57.6046 21.5627 57.4907 21.6488 57.3368 21.693C57.179 21.7377 56.9632 21.7587 56.6748 21.7587L55.4587 21.7576V23.4047L56.6748 23.4061C56.9605 23.4061 57.179 23.4292 57.3339 23.4752C57.489 23.5197 57.6023 23.6064 57.6771 23.7281C57.7514 23.8503 57.7887 24.0331 57.7887 24.2746C57.7887 24.5756 57.6893 24.7934 57.4907 24.9282C57.2899 25.061 56.8887 25.1296 56.2787 25.1296C55.9157 25.1296 55.6351 25.1048 55.4323 25.0541C55.2293 25.0023 55.0824 24.913 54.9883 24.7811C54.8908 24.6455 54.8465 24.451 54.8465 24.2003H52.3883V24.5745C52.3883 25.2214 52.5362 25.732 52.8332 26.1015C53.1327 26.4713 53.5696 26.7325 54.1407 26.8796C54.7132 27.0291 55.4364 27.1036 56.313 27.1036C57.1955 27.1077 57.9264 27.0358 58.5141 26.8937C59.0972 26.7493 59.5556 26.5055 59.8703 26.1564C60.1826 25.801 60.3453 25.3211 60.3453 24.711C60.3453 24.0757 60.241 23.5935 60.0359 23.2605C59.832 22.9285 59.4313 22.717 58.8375 22.6256ZM73.7433 20.0975L73.7409 21.7231L77.8364 21.7268V23.3716L73.7374 23.3681L73.7338 25.0983L78.19 25.1018L78.1859 27.0483L71.1805 27.0414L71.1881 18.15L78.1034 18.157V20.1053L73.7433 20.0975ZM64.2463 23.3468V25.0911H66.1786C66.465 25.0911 66.6931 25.0664 66.8622 25.0171C67.0331 24.9673 67.1562 24.8769 67.2364 24.7466C67.3153 24.615 67.3578 24.4317 67.3578 24.1934C67.3578 23.8378 67.28 23.6122 67.1256 23.5076C66.9665 23.4019 66.6712 23.3468 66.2328 23.3468H64.2463ZM64.2511 20.0905L64.2493 21.6999L66.0938 21.7048C66.4096 21.7048 66.6424 21.6826 66.795 21.6381C66.9453 21.5951 67.0508 21.5125 67.1115 21.3915C67.1745 21.2719 67.2051 21.0922 67.2051 20.8508C67.2051 20.5658 67.1562 20.3693 67.0496 20.2601C66.9411 20.1502 66.7266 20.0938 66.4008 20.0938L64.2511 20.0905ZM61.6894 27.0291L61.6971 18.1431L66.7343 18.1475C67.4297 18.1475 67.996 18.2053 68.4244 18.324C68.8575 18.4392 69.1881 18.6632 69.4191 18.9943C69.6477 19.3275 69.7644 19.8032 69.7644 20.4244C69.7644 20.8408 69.7232 21.1842 69.6448 21.4538C69.5664 21.7268 69.4144 21.944 69.1928 22.1222C68.9718 22.2976 68.6613 22.4123 68.2576 22.4741V22.5694C68.7037 22.5947 69.0526 22.6932 69.293 22.8623C69.5364 23.0292 69.699 23.2527 69.788 23.5259C69.8723 23.8008 69.9153 24.1472 69.9135 24.5606C69.9135 25.2612 69.7974 25.7892 69.5664 26.1517C69.3366 26.5099 68.9983 26.7477 68.5623 26.8623C68.1256 26.9791 67.5293 27.037 66.7797 27.0342L61.6894 27.0291ZM122.88 18.2005H125.312L125.302 24.0548H125.395L128.396 18.2053L131.757 18.2067L131.751 27.0948L129.32 27.0932L129.325 21.2402H129.239L126.352 27.0902L122.871 27.0876L122.88 18.2005ZM118.751 27.0832L121.312 27.0846L121.317 18.1977L118.762 18.1968L118.751 27.0832ZM111.975 25.1344H113.751C114.129 25.1344 114.387 25.0798 114.533 24.9622C114.679 24.8468 114.753 24.6198 114.753 24.2832C114.753 23.9243 114.68 23.6842 114.535 23.5634C114.392 23.4444 114.132 23.3829 113.753 23.3829L111.977 23.3799L111.975 25.1344ZM111.978 21.4371H114.327C114.984 21.4385 115.532 21.5389 115.978 21.7335C116.423 21.9269 116.753 22.2339 116.976 22.6497C117.199 23.069 117.31 23.6073 117.313 24.2612C117.31 24.9183 117.199 25.4556 116.976 25.8702C116.753 26.2846 116.423 26.5916 115.983 26.7891C115.545 26.9805 115 27.08 114.354 27.08L109.418 27.0745L109.424 18.1884L111.98 18.1896L111.978 21.4371ZM107.878 18.1866L107.868 27.0745L105.308 27.071L105.313 23.5873L101.97 23.5833L101.966 27.0679L99.4096 27.0649L99.4161 18.1782L101.975 18.1813L101.97 21.5229L105.315 21.5283V18.1836L107.878 18.1866ZM92.5869 20.2143L92.5981 21.429C92.5981 22.003 92.568 22.5046 92.5114 22.9313C92.4566 23.3591 92.3688 23.7351 92.2516 24.0668C92.1378 24.4012 91.9899 24.717 91.7972 25.0224H94.9835L94.9894 20.2155L92.5869 20.2143ZM89.2203 25.0171C89.4407 24.733 89.6216 24.4276 89.7648 24.0974C89.905 23.7638 90.004 23.3762 90.07 22.9227C90.1337 22.4729 90.1661 21.9269 90.1673 21.2855V18.1702L97.5634 18.1757L97.5569 25.025L98.3465 25.0273V27.0679L95.9151 27.064L90.8791 27.0594L88.4625 27.0557V25.0171H89.2203ZM129.455 14.0011C129.953 13.7528 130.359 14.0025 130.359 14.5547L130.358 15.5943C130.358 16.1468 129.903 16.601 129.348 16.5999L125.28 16.595C124.725 16.595 124.676 16.3916 125.173 16.1431L129.455 14.0011ZM12.4952 0.00577164L13.1388 1.34373L14.6136 1.57603L13.5327 2.5999L13.7665 4.06491L12.4512 3.35622L11.1228 4.03068L11.3942 2.57325L10.3381 1.52237L11.8175 1.32661L12.4952 0.00577164ZM19.2356 0.00458527L19.8801 1.34468L21.3541 1.57603L20.272 2.59943L20.506 4.06491L19.193 3.35622L17.8633 4.03068L18.1326 2.57093L17.0767 1.52237L18.5577 1.3278L19.2356 0.00458527ZM25.9758 0.00458527L26.6183 1.34587L28.0938 1.57603L27.0103 2.5999L27.2442 4.06491L25.9325 3.3574L24.6009 4.03133L24.873 2.57325L23.8171 1.52237L25.2959 1.33011L25.9758 0.00458527Z" fill="white"/>
</svg>
